<svg xmlns="http://www.w3.org/2000/svg" width="32" height="32" viewBox="0 0 1500 1500">
  <circle cx="750" cy="750" r="750" fill="#1e1e1e" />
  <g transform="matrix(1, 0, 0, 1, 343, 0)">
    <g fill="#ffffff">
      <g transform="translate(0.3, 1125.4)">
        <path d="M 263.07 -454.98 C 263.07 -405.83 260.95 -356.69 256.71 -307.54 C 252.47 -258.41 250.35 -208.84 250.35 -158.85 C 250.35 -135.14 252.47 -111.62 256.71 -88.32 C 260.95 -65.02 263.07 -41.93 263.07 -19.06 C 263.07 -3.81 258.41 11.64 249.09 27.31 C 239.76 42.98 228.33 56.33 214.78 67.34 C 201.22 78.36 187.67 83.87 174.1 83.87 C 161.39 83.87 147.84 78.36 133.43 67.34 C 119.03 56.33 106.33 42.56 95.31 26.04 C 84.3 9.52 77.52 -7.62 74.98 -25.42 C 67.35 -94.04 63.54 -162.67 63.54 -231.29 C 63.54 -317.72 66.08 -406.68 71.17 -498.18 C 76.25 -589.69 81.75 -679.08 87.68 -766.34 C 90.22 -810.4 97.64 -841.33 109.92 -859.12 C 122.21 -876.91 142.75 -885.81 171.56 -885.81 C 202.91 -885.81 228.33 -874.79 247.81 -852.76 C 267.3 -830.73 277.04 -801.92 277.04 -766.34 C 277.04 -719.75 274.5 -674 269.42 -629.09 C 264.33 -584.18 261.79 -539.28 261.79 -494.37 C 261.79 -488.44 261.79 -482.09 261.79 -475.31 C 261.79 -468.53 262.22 -461.75 263.07 -454.98 Z" />
      </g>
      <g transform="translate(315.4, 1125.4)">
        <path d="M 498.18 -210.96 C 466.84 -154.19 429.98 -110.13 387.62 -78.78 C 345.25 -47.43 291.03 -31.76 224.95 -31.76 C 194.45 -31.76 164.79 -38.11 135.98 -50.82 C 107.17 -63.54 83.67 -82.61 65.45 -108.03 C 47.23 -133.44 38.12 -165.21 38.12 -203.34 C 38.12 -242.31 48.71 -278.53 69.89 -312 C 91.07 -345.46 119.03 -373.85 153.78 -397.15 C 188.51 -420.45 225.79 -436.34 265.6 -444.81 C 269.84 -445.65 273.66 -446.28 277.04 -446.71 C 280.44 -447.14 283.83 -447.35 287.21 -447.35 C 308.4 -447.35 327.46 -441.42 344.4 -429.56 C 361.35 -417.69 369.82 -405.41 369.82 -392.7 C 369.82 -374.91 361.77 -358.17 345.67 -342.5 C 329.57 -326.83 311.14 -312 290.39 -298.01 C 269.64 -284.03 251.21 -270.47 235.1 -257.34 C 219.01 -244.21 210.96 -231.3 210.96 -218.59 C 210.96 -205.88 215.83 -195.08 225.57 -186.18 C 235.32 -177.28 246.55 -172.84 259.26 -172.84 C 262.64 -172.84 266.88 -173.69 271.96 -175.39 C 294 -182.16 316.23 -188.08 338.68 -193.17 C 361.14 -198.25 383.39 -205.03 405.42 -213.51 C 413.04 -216.05 420.87 -218.59 428.92 -221.14 C 436.97 -223.67 445.23 -224.95 453.7 -224.95 C 468.1 -224.95 482.93 -220.28 498.18 -210.96 Z" />
      </g>
    </g>
  </g>
</svg>